<svg width="400" height="100" viewBox="0 0 400 100" fill="none" xmlns="http://www.w3.org/2000/svg">
  <rect width="400" height="100" fill="#FFFFFF"/>
  <defs>
    <linearGradient id="mg" x1="0" y1="0" x2="1" y2="1"><stop offset="0%" stop-color="#8A6CFF"/><stop offset="100%" stop-color="#4B7BFF"/></linearGradient>
    <linearGradient id="ng" x1="0" y1="0" x2="1" y2="1"><stop offset="0%" stop-color="#A98DFF"/><stop offset="100%" stop-color="#6B9FFF"/></linearGradient>
    <radialGradient id="gl" cx="50%" cy="50%" r="50%"><stop offset="0%" stop-color="#8A6CFF" stop-opacity="0.12"/><stop offset="100%" stop-color="#8A6CFF" stop-opacity="0"/></radialGradient>
  </defs>
  <circle cx="50" cy="50" r="38" fill="url(#gl)"/>
  <circle cx="50" cy="50" r="22" fill="none" stroke="#8A6CFF" stroke-width="0.8" stroke-opacity="0.15"/>
  <line x1="50" y1="50" x2="50" y2="14" stroke="#8A6CFF" stroke-width="1.6" stroke-opacity="0.38"/>
  <line x1="50" y1="50" x2="86" y2="50" stroke="#8A6CFF" stroke-width="1.6" stroke-opacity="0.38"/>
  <line x1="50" y1="50" x2="50" y2="86" stroke="#8A6CFF" stroke-width="1.6" stroke-opacity="0.38"/>
  <line x1="50" y1="50" x2="14" y2="50" stroke="#8A6CFF" stroke-width="1.6" stroke-opacity="0.38"/>
  <line x1="50" y1="50" x2="76" y2="24" stroke="#8A6CFF" stroke-width="1.0" stroke-opacity="0.22"/>
  <line x1="50" y1="50" x2="76" y2="76" stroke="#8A6CFF" stroke-width="1.0" stroke-opacity="0.22"/>
  <line x1="50" y1="50" x2="24" y2="76" stroke="#8A6CFF" stroke-width="1.0" stroke-opacity="0.22"/>
  <line x1="50" y1="50" x2="24" y2="24" stroke="#8A6CFF" stroke-width="1.0" stroke-opacity="0.22"/>
  <circle cx="50" cy="14" r="7"   fill="url(#ng)" opacity="0.9"/>
  <circle cx="86" cy="50" r="7"   fill="url(#ng)" opacity="0.9"/>
  <circle cx="50" cy="86" r="7"   fill="url(#ng)" opacity="0.9"/>
  <circle cx="14" cy="50" r="7"   fill="url(#ng)" opacity="0.9"/>
  <circle cx="68" cy="32" r="4.5" fill="url(#ng)" opacity="0.62"/>
  <circle cx="68" cy="68" r="4.5" fill="url(#ng)" opacity="0.62"/>
  <circle cx="32" cy="68" r="4.5" fill="url(#ng)" opacity="0.62"/>
  <circle cx="32" cy="32" r="4.5" fill="url(#ng)" opacity="0.62"/>
  <circle cx="50" cy="50" r="16" fill="url(#mg)"/>
  <circle cx="44" cy="44" r="6"  fill="white" fill-opacity="0.2"/>
  <text x="115" y="58" font-family="Inter,-apple-system,system-ui,sans-serif" font-size="36" font-weight="600" fill="#050810" letter-spacing="4">JWEBLY</text>
  <text x="116" y="76" font-family="Inter,-apple-system,system-ui,sans-serif" font-size="10" font-weight="400" fill="#9CA3AF" letter-spacing="2.5">OPERATIONAL INTELLIGENCE</text>
</svg>
