<svg width="200" height="200" viewBox="0 0 200 200" fill="none" xmlns="http://www.w3.org/2000/svg">
  <rect width="200" height="200" rx="40" fill="#050810"/>
  <defs>
    <linearGradient id="mg" x1="0" y1="0" x2="1" y2="1"><stop offset="0%" stop-color="#8A6CFF"/><stop offset="100%" stop-color="#4B7BFF"/></linearGradient>
    <linearGradient id="ng" x1="0" y1="0" x2="1" y2="1"><stop offset="0%" stop-color="#A98DFF"/><stop offset="100%" stop-color="#6B9FFF"/></linearGradient>
    <radialGradient id="gl" cx="50%" cy="50%" r="50%"><stop offset="0%" stop-color="#8A6CFF" stop-opacity="0.3"/><stop offset="100%" stop-color="#8A6CFF" stop-opacity="0"/></radialGradient>
  </defs>
  <circle cx="100" cy="100" r="78" fill="url(#gl)"/>
  <circle cx="100" cy="100" r="44" fill="none" stroke="#8A6CFF" stroke-width="1.4" stroke-opacity="0.2"/>
  <!-- Primary spokes -->
  <line x1="100" y1="100" x2="100" y2="28"  stroke="#8A6CFF" stroke-width="2.2" stroke-opacity="0.48"/>
  <line x1="100" y1="100" x2="172" y2="100" stroke="#8A6CFF" stroke-width="2.2" stroke-opacity="0.48"/>
  <line x1="100" y1="100" x2="100" y2="172" stroke="#8A6CFF" stroke-width="2.2" stroke-opacity="0.48"/>
  <line x1="100" y1="100" x2="28"  y2="100" stroke="#8A6CFF" stroke-width="2.2" stroke-opacity="0.48"/>
  <!-- Secondary spokes (d=51, offset=36) -->
  <line x1="100" y1="100" x2="151" y2="49"  stroke="#8A6CFF" stroke-width="1.3" stroke-opacity="0.28"/>
  <line x1="100" y1="100" x2="151" y2="151" stroke="#8A6CFF" stroke-width="1.3" stroke-opacity="0.28"/>
  <line x1="100" y1="100" x2="49"  y2="151" stroke="#8A6CFF" stroke-width="1.3" stroke-opacity="0.28"/>
  <line x1="100" y1="100" x2="49"  y2="49"  stroke="#8A6CFF" stroke-width="1.3" stroke-opacity="0.28"/>
  <!-- Primary nodes -->
  <circle cx="100" cy="28"  r="14" fill="url(#ng)" opacity="0.9"/>
  <circle cx="172" cy="100" r="14" fill="url(#ng)" opacity="0.9"/>
  <circle cx="100" cy="172" r="14" fill="url(#ng)" opacity="0.9"/>
  <circle cx="28"  cy="100" r="14" fill="url(#ng)" opacity="0.9"/>
  <!-- Secondary nodes -->
  <circle cx="136" cy="64"  r="9"  fill="url(#ng)" opacity="0.62"/>
  <circle cx="136" cy="136" r="9"  fill="url(#ng)" opacity="0.62"/>
  <circle cx="64"  cy="136" r="9"  fill="url(#ng)" opacity="0.62"/>
  <circle cx="64"  cy="64"  r="9"  fill="url(#ng)" opacity="0.62"/>
  <!-- Hub -->
  <circle cx="100" cy="100" r="32" fill="url(#mg)"/>
  <circle cx="88"  cy="88"  r="12" fill="white" fill-opacity="0.13"/>
</svg>
