<svg width="400" height="400" viewBox="0 0 400 400" fill="none" xmlns="http://www.w3.org/2000/svg">
  <circle cx="200" cy="200" r="200" fill="#050810"/>
  <defs>
    <linearGradient id="mg" x1="0" y1="0" x2="1" y2="1"><stop offset="0%" stop-color="#8A6CFF"/><stop offset="100%" stop-color="#4B7BFF"/></linearGradient>
    <linearGradient id="ng" x1="0" y1="0" x2="1" y2="1"><stop offset="0%" stop-color="#A98DFF"/><stop offset="100%" stop-color="#6B9FFF"/></linearGradient>
    <radialGradient id="gl" cx="50%" cy="50%" r="50%"><stop offset="0%" stop-color="#8A6CFF" stop-opacity="0.3"/><stop offset="100%" stop-color="#8A6CFF" stop-opacity="0"/></radialGradient>
  </defs>
  <circle cx="200" cy="200" r="155" fill="url(#gl)"/>
  <circle cx="200" cy="200" r="87"  fill="none" stroke="#8A6CFF" stroke-width="2.5" stroke-opacity="0.2"/>
  <!-- Primary spokes (d=145) -->
  <line x1="200" y1="200" x2="200" y2="55"  stroke="#8A6CFF" stroke-width="4" stroke-opacity="0.48"/>
  <line x1="200" y1="200" x2="345" y2="200" stroke="#8A6CFF" stroke-width="4" stroke-opacity="0.48"/>
  <line x1="200" y1="200" x2="200" y2="345" stroke="#8A6CFF" stroke-width="4" stroke-opacity="0.48"/>
  <line x1="200" y1="200" x2="55"  y2="200" stroke="#8A6CFF" stroke-width="4" stroke-opacity="0.48"/>
  <!-- Secondary spokes (d=103, offset=73) -->
  <line x1="200" y1="200" x2="273" y2="127" stroke="#8A6CFF" stroke-width="2.4" stroke-opacity="0.28"/>
  <line x1="200" y1="200" x2="273" y2="273" stroke="#8A6CFF" stroke-width="2.4" stroke-opacity="0.28"/>
  <line x1="200" y1="200" x2="127" y2="273" stroke="#8A6CFF" stroke-width="2.4" stroke-opacity="0.28"/>
  <line x1="200" y1="200" x2="127" y2="127" stroke="#8A6CFF" stroke-width="2.4" stroke-opacity="0.28"/>
  <!-- Primary nodes -->
  <circle cx="200" cy="55"  r="28" fill="url(#ng)" opacity="0.9"/>
  <circle cx="345" cy="200" r="28" fill="url(#ng)" opacity="0.9"/>
  <circle cx="200" cy="345" r="28" fill="url(#ng)" opacity="0.9"/>
  <circle cx="55"  cy="200" r="28" fill="url(#ng)" opacity="0.9"/>
  <!-- Secondary nodes -->
  <circle cx="273" cy="127" r="18" fill="url(#ng)" opacity="0.62"/>
  <circle cx="273" cy="273" r="18" fill="url(#ng)" opacity="0.62"/>
  <circle cx="127" cy="273" r="18" fill="url(#ng)" opacity="0.62"/>
  <circle cx="127" cy="127" r="18" fill="url(#ng)" opacity="0.62"/>
  <!-- Hub -->
  <circle cx="200" cy="200" r="64" fill="url(#mg)"/>
  <circle cx="176" cy="176" r="24" fill="white" fill-opacity="0.13"/>
</svg>
