<svg width="1500" height="500" viewBox="0 0 1500 500" fill="none" xmlns="http://www.w3.org/2000/svg">
  <rect width="1500" height="500" fill="#050810"/>
  <circle cx="750" cy="250" r="500" fill="#8A6CFF" fill-opacity="0.04"/>
  <circle cx="100"  cy="250" r="350" fill="#8A6CFF" fill-opacity="0.07"/>
  <circle cx="1400" cy="250" r="300" fill="#4B7BFF" fill-opacity="0.07"/>
  <defs>
    <linearGradient id="mg" x1="0" y1="0" x2="1" y2="1"><stop offset="0%" stop-color="#8A6CFF"/><stop offset="100%" stop-color="#4B7BFF"/></linearGradient>
    <linearGradient id="ng" x1="0" y1="0" x2="1" y2="1"><stop offset="0%" stop-color="#A98DFF"/><stop offset="100%" stop-color="#6B9FFF"/></linearGradient>
    <radialGradient id="gl" cx="50%" cy="50%" r="50%"><stop offset="0%" stop-color="#8A6CFF" stop-opacity="0.28"/><stop offset="100%" stop-color="#8A6CFF" stop-opacity="0"/></radialGradient>
    <linearGradient id="tg" x1="0" y1="0" x2="1" y2="0"><stop offset="0%" stop-color="#8A6CFF"/><stop offset="100%" stop-color="#4B7BFF"/></linearGradient>
  </defs>
  <!-- Large decorative mark (hub at 1280,250, d=220) -->
  <circle cx="1280" cy="250" r="235" fill="url(#gl)" opacity="0.6"/>
  <circle cx="1280" cy="250" r="132" fill="none" stroke="#8A6CFF" stroke-width="1.5" stroke-opacity="0.14"/>
  <!-- Primary spokes -->
  <line x1="1280" y1="250" x2="1280" y2="30"  stroke="#8A6CFF" stroke-width="2.5" stroke-opacity="0.3"/>
  <line x1="1280" y1="250" x2="1500" y2="250" stroke="#8A6CFF" stroke-width="2.5" stroke-opacity="0.3"/>
  <line x1="1280" y1="250" x2="1280" y2="470" stroke="#8A6CFF" stroke-width="2.5" stroke-opacity="0.3"/>
  <line x1="1280" y1="250" x2="1060" y2="250" stroke="#8A6CFF" stroke-width="2.5" stroke-opacity="0.3"/>
  <!-- Secondary spokes (d=154, offset=109) -->
  <line x1="1280" y1="250" x2="1389" y2="141" stroke="#8A6CFF" stroke-width="1.5" stroke-opacity="0.18"/>
  <line x1="1280" y1="250" x2="1389" y2="359" stroke="#8A6CFF" stroke-width="1.5" stroke-opacity="0.18"/>
  <line x1="1280" y1="250" x2="1171" y2="359" stroke="#8A6CFF" stroke-width="1.5" stroke-opacity="0.18"/>
  <line x1="1280" y1="250" x2="1171" y2="141" stroke="#8A6CFF" stroke-width="1.5" stroke-opacity="0.18"/>
  <!-- Primary nodes -->
  <circle cx="1280" cy="30"  r="30" fill="url(#ng)" opacity="0.5"/>
  <circle cx="1500" cy="250" r="30" fill="url(#ng)" opacity="0.5"/>
  <circle cx="1280" cy="470" r="30" fill="url(#ng)" opacity="0.5"/>
  <circle cx="1060" cy="250" r="30" fill="url(#ng)" opacity="0.5"/>
  <!-- Secondary nodes -->
  <circle cx="1389" cy="141" r="19" fill="url(#ng)" opacity="0.32"/>
  <circle cx="1389" cy="359" r="19" fill="url(#ng)" opacity="0.32"/>
  <circle cx="1171" cy="359" r="19" fill="url(#ng)" opacity="0.32"/>
  <circle cx="1171" cy="141" r="19" fill="url(#ng)" opacity="0.32"/>
  <!-- Hub -->
  <circle cx="1280" cy="250" r="80" fill="url(#mg)" opacity="0.6"/>
  <!-- Left content -->
  <text x="80" y="190" font-family="Inter,-apple-system,system-ui,sans-serif" font-size="80" font-weight="700" fill="white" letter-spacing="5">JWEBLY</text>
  <text x="82" y="250" font-family="Inter,-apple-system,system-ui,sans-serif" font-size="20" font-weight="400" fill="#6B7280" letter-spacing="4">OPERATIONAL INTELLIGENCE</text>
  <line x1="80" y1="290" x2="400" y2="290" stroke="#1B2B45" stroke-width="1"/>
  <text x="80" y="340" font-family="Inter,-apple-system,system-ui,sans-serif" font-size="28" font-weight="300" fill="#94A3B8">AI automation systems for growing businesses.</text>
  <text x="80" y="390" font-family="Inter,-apple-system,system-ui,sans-serif" font-size="18" font-weight="400" fill="#4B5563">hello@jwebly.co.uk · jwebly.co.uk</text>
</svg>
