<svg width="1080" height="1080" viewBox="0 0 1080 1080" fill="none" xmlns="http://www.w3.org/2000/svg">
  <rect width="1080" height="1080" fill="#0A0E1A"/>
  <rect x="0" y="0" width="1080" height="6" fill="#8A6CFF"/>
  <circle cx="980" cy="100" r="300" fill="#8A6CFF" fill-opacity="0.06"/>
  <defs>
    <linearGradient id="mg" x1="0" y1="0" x2="1" y2="1"><stop offset="0%" stop-color="#8A6CFF"/><stop offset="100%" stop-color="#4B7BFF"/></linearGradient>
    <linearGradient id="ng" x1="0" y1="0" x2="1" y2="1"><stop offset="0%" stop-color="#A98DFF"/><stop offset="100%" stop-color="#6B9FFF"/></linearGradient>
    <linearGradient id="tg" x1="0" y1="0" x2="1" y2="0"><stop offset="0%" stop-color="#8A6CFF"/><stop offset="100%" stop-color="#4B7BFF"/></linearGradient>
    <radialGradient id="gl" cx="50%" cy="50%" r="50%"><stop offset="0%" stop-color="#8A6CFF" stop-opacity="0.22"/><stop offset="100%" stop-color="#8A6CFF" stop-opacity="0"/></radialGradient>
  </defs>
  <!-- Logo mark top left (hub 80,80, d=50) -->
  <circle cx="80" cy="80" r="55" fill="url(#gl)"/>
  <circle cx="80" cy="80" r="30" fill="none" stroke="#8A6CFF" stroke-width="0.9" stroke-opacity="0.18"/>
  <!-- Primary spokes -->
  <line x1="80" y1="80" x2="80" y2="30"  stroke="#8A6CFF" stroke-width="1.5" stroke-opacity="0.5"/>
  <line x1="80" y1="80" x2="130" y2="80" stroke="#8A6CFF" stroke-width="1.5" stroke-opacity="0.5"/>
  <line x1="80" y1="80" x2="80" y2="130" stroke="#8A6CFF" stroke-width="1.5" stroke-opacity="0.5"/>
  <line x1="80" y1="80" x2="30"  y2="80" stroke="#8A6CFF" stroke-width="1.5" stroke-opacity="0.5"/>
  <!-- Secondary spokes (d=35, offset=25) -->
  <line x1="80" y1="80" x2="105" y2="55"  stroke="#8A6CFF" stroke-width="0.9" stroke-opacity="0.28"/>
  <line x1="80" y1="80" x2="105" y2="105" stroke="#8A6CFF" stroke-width="0.9" stroke-opacity="0.28"/>
  <line x1="80" y1="80" x2="55"  y2="105" stroke="#8A6CFF" stroke-width="0.9" stroke-opacity="0.28"/>
  <line x1="80" y1="80" x2="55"  y2="55"  stroke="#8A6CFF" stroke-width="0.9" stroke-opacity="0.28"/>
  <!-- Primary nodes -->
  <circle cx="80" cy="30"  r="10" fill="url(#ng)" opacity="0.9"/>
  <circle cx="130" cy="80" r="10" fill="url(#ng)" opacity="0.9"/>
  <circle cx="80" cy="130" r="10" fill="url(#ng)" opacity="0.9"/>
  <circle cx="30"  cy="80" r="10" fill="url(#ng)" opacity="0.9"/>
  <!-- Secondary nodes -->
  <circle cx="105" cy="55"  r="6.5" fill="url(#ng)" opacity="0.62"/>
  <circle cx="105" cy="105" r="6.5" fill="url(#ng)" opacity="0.62"/>
  <circle cx="55"  cy="105" r="6.5" fill="url(#ng)" opacity="0.62"/>
  <circle cx="55"  cy="55"  r="6.5" fill="url(#ng)" opacity="0.62"/>
  <!-- Hub -->
  <circle cx="80" cy="80" r="24" fill="url(#mg)"/>
  <!-- Content -->
  <text x="80" y="280" font-family="Inter,-apple-system,system-ui,sans-serif" font-size="26" font-weight="400" fill="#6B7280" letter-spacing="2">THE PILOT</text>
  <text x="80" y="420" font-family="Inter,-apple-system,system-ui,sans-serif" font-size="160" font-weight="700" fill="url(#tg)">£600</text>
  <text x="80" y="480" font-family="Inter,-apple-system,system-ui,sans-serif" font-size="22" font-weight="400" fill="#6B7280">One-time fixed price. No hidden costs.</text>
  <line x1="80" y1="540" x2="500" y2="540" stroke="#1B2B45" stroke-width="1"/>
  <circle cx="88" cy="600" r="4" fill="#8A6CFF"/>
  <text x="110" y="608" font-family="Inter,-apple-system,system-ui,sans-serif" font-size="26" font-weight="400" fill="#94A3B8">Live in 1–2 weeks</text>
  <circle cx="88" cy="668" r="4" fill="#8A6CFF"/>
  <text x="110" y="676" font-family="Inter,-apple-system,system-ui,sans-serif" font-size="26" font-weight="400" fill="#94A3B8">1–2 workflows automated end-to-end</text>
  <circle cx="88" cy="736" r="4" fill="#8A6CFF"/>
  <text x="110" y="744" font-family="Inter,-apple-system,system-ui,sans-serif" font-size="26" font-weight="400" fill="#94A3B8">Includes ROI report and roadmap</text>
  <circle cx="88" cy="804" r="4" fill="#8A6CFF"/>
  <text x="110" y="812" font-family="Inter,-apple-system,system-ui,sans-serif" font-size="26" font-weight="400" fill="#94A3B8">£120/month retainer from day one</text>
  <line x1="80" y1="900" x2="1000" y2="900" stroke="#1B2B45" stroke-width="1"/>
  <text x="80" y="960" font-family="Inter,-apple-system,system-ui,sans-serif" font-size="20" font-weight="400" fill="#374151">Prove value before you scale.</text>
  <text x="80" y="1000" font-family="Inter,-apple-system,system-ui,sans-serif" font-size="18" font-weight="600" fill="#8A6CFF">jwebly.co.uk</text>
</svg>
