<svg width="1080" height="1080" viewBox="0 0 1080 1080" fill="none" xmlns="http://www.w3.org/2000/svg">
  <rect width="1080" height="1080" fill="#050810"/>
  <line x1="0" y1="1080" x2="1080" y2="0" stroke="#1B2B45" stroke-width="1"/>
  <circle cx="900" cy="200" r="400" fill="#4B7BFF" fill-opacity="0.05"/>
  <circle cx="180" cy="880" r="300" fill="#8A6CFF" fill-opacity="0.07"/>
  <defs>
    <linearGradient id="mg" x1="0" y1="0" x2="1" y2="1"><stop offset="0%" stop-color="#8A6CFF"/><stop offset="100%" stop-color="#4B7BFF"/></linearGradient>
    <linearGradient id="ng" x1="0" y1="0" x2="1" y2="1"><stop offset="0%" stop-color="#A98DFF"/><stop offset="100%" stop-color="#6B9FFF"/></linearGradient>
    <linearGradient id="tg" x1="0" y1="0" x2="1" y2="0"><stop offset="0%" stop-color="#8A6CFF"/><stop offset="100%" stop-color="#4B7BFF"/></linearGradient>
    <radialGradient id="gl" cx="50%" cy="50%" r="50%"><stop offset="0%" stop-color="#8A6CFF" stop-opacity="0.2"/><stop offset="100%" stop-color="#8A6CFF" stop-opacity="0"/></radialGradient>
  </defs>
  <!-- Corner mark (hub 1000,80, d=55) -->
  <circle cx="1000" cy="80" r="60" fill="url(#gl)"/>
  <circle cx="1000" cy="80" r="33" fill="none" stroke="#8A6CFF" stroke-width="0.9" stroke-opacity="0.16"/>
  <line x1="1000" y1="80" x2="1000" y2="25"  stroke="#8A6CFF" stroke-width="1.5" stroke-opacity="0.4"/>
  <line x1="1000" y1="80" x2="1055" y2="80"  stroke="#8A6CFF" stroke-width="1.5" stroke-opacity="0.4"/>
  <line x1="1000" y1="80" x2="1000" y2="135" stroke="#8A6CFF" stroke-width="1.5" stroke-opacity="0.4"/>
  <line x1="1000" y1="80" x2="945"  y2="80"  stroke="#8A6CFF" stroke-width="1.5" stroke-opacity="0.4"/>
  <line x1="1000" y1="80" x2="1039" y2="41"  stroke="#8A6CFF" stroke-width="0.9" stroke-opacity="0.24"/>
  <line x1="1000" y1="80" x2="1039" y2="119" stroke="#8A6CFF" stroke-width="0.9" stroke-opacity="0.24"/>
  <line x1="1000" y1="80" x2="961"  y2="119" stroke="#8A6CFF" stroke-width="0.9" stroke-opacity="0.24"/>
  <line x1="1000" y1="80" x2="961"  y2="41"  stroke="#8A6CFF" stroke-width="0.9" stroke-opacity="0.24"/>
  <circle cx="1000" cy="25"  r="11" fill="url(#ng)" opacity="0.85"/>
  <circle cx="1055" cy="80"  r="11" fill="url(#ng)" opacity="0.85"/>
  <circle cx="1000" cy="135" r="11" fill="url(#ng)" opacity="0.85"/>
  <circle cx="945"  cy="80"  r="11" fill="url(#ng)" opacity="0.85"/>
  <circle cx="1039" cy="41"  r="7"  fill="url(#ng)" opacity="0.62"/>
  <circle cx="1039" cy="119" r="7"  fill="url(#ng)" opacity="0.62"/>
  <circle cx="961"  cy="119" r="7"  fill="url(#ng)" opacity="0.62"/>
  <circle cx="961"  cy="41"  r="7"  fill="url(#ng)" opacity="0.62"/>
  <circle cx="1000" cy="80"  r="26" fill="url(#mg)"/>
  <!-- Top label -->
  <text x="80" y="130" font-family="Inter,-apple-system,system-ui,sans-serif" font-size="18" font-weight="400" fill="#374151" letter-spacing="3">JWEBLY · OPERATIONAL INTELLIGENCE</text>
  <line x1="80" y1="148" x2="600" y2="148" stroke="#1B2B45" stroke-width="1"/>
  <!-- Main headline -->
  <text x="80" y="300" font-family="Inter,-apple-system,system-ui,sans-serif" font-size="88" font-weight="700" fill="white">The world</text>
  <text x="80" y="408" font-family="Inter,-apple-system,system-ui,sans-serif" font-size="88" font-weight="700" fill="white">is innovating.</text>
  <text x="80" y="540" font-family="Inter,-apple-system,system-ui,sans-serif" font-size="52" font-weight="300" fill="#6B7280">Is your business</text>
  <text x="80" y="612" font-family="Inter,-apple-system,system-ui,sans-serif" font-size="52" font-weight="300" fill="#6B7280">keeping up?</text>
  <rect x="80" y="670" width="120" height="4" fill="url(#tg)" rx="2"/>
  <text x="80" y="750" font-family="Inter,-apple-system,system-ui,sans-serif" font-size="26" font-weight="400" fill="#4B5563">We build the AI systems that help growing</text>
  <text x="80" y="795" font-family="Inter,-apple-system,system-ui,sans-serif" font-size="26" font-weight="400" fill="#4B5563">businesses close that gap — starting with</text>
  <text x="80" y="840" font-family="Inter,-apple-system,system-ui,sans-serif" font-size="26" font-weight="400" fill="#4B5563">a single, proven Pilot.</text>
  <rect x="80" y="920" width="320" height="70" rx="12" fill="url(#tg)"/>
  <text x="240" y="963" font-family="Inter,-apple-system,system-ui,sans-serif" font-size="22" font-weight="600" fill="white" text-anchor="middle">Book a discovery call</text>
  <text x="80" y="1040" font-family="Inter,-apple-system,system-ui,sans-serif" font-size="18" font-weight="400" fill="#374151">jwebly.co.uk · hello@jwebly.co.uk</text>
</svg>
