<svg width="1080" height="1080" viewBox="0 0 1080 1080" fill="none" xmlns="http://www.w3.org/2000/svg">
  <rect width="1080" height="1080" fill="#050810"/>
  <circle cx="540" cy="540" r="700" fill="#8A6CFF" fill-opacity="0.04"/>
  <text x="60" y="320" font-family="Georgia,Times,serif" font-size="400" fill="#8A6CFF" fill-opacity="0.06">"</text>
  <defs>
    <linearGradient id="mg" x1="0" y1="0" x2="1" y2="1"><stop offset="0%" stop-color="#8A6CFF"/><stop offset="100%" stop-color="#4B7BFF"/></linearGradient>
    <linearGradient id="ng" x1="0" y1="0" x2="1" y2="1"><stop offset="0%" stop-color="#A98DFF"/><stop offset="100%" stop-color="#6B9FFF"/></linearGradient>
    <linearGradient id="tg" x1="0" y1="0" x2="1" y2="0"><stop offset="0%" stop-color="#8A6CFF"/><stop offset="100%" stop-color="#4B7BFF"/></linearGradient>
    <radialGradient id="gl" cx="50%" cy="50%" r="50%"><stop offset="0%" stop-color="#8A6CFF" stop-opacity="0.2"/><stop offset="100%" stop-color="#8A6CFF" stop-opacity="0"/></radialGradient>
  </defs>
  <!-- Corner mark top-right -->
  <circle cx="1000" cy="80" r="60" fill="url(#gl)"/>
  <circle cx="1000" cy="80" r="33" fill="none" stroke="#8A6CFF" stroke-width="0.9" stroke-opacity="0.16"/>
  <line x1="1000" y1="80" x2="1000" y2="25"  stroke="#8A6CFF" stroke-width="1.5" stroke-opacity="0.4"/>
  <line x1="1000" y1="80" x2="1055" y2="80"  stroke="#8A6CFF" stroke-width="1.5" stroke-opacity="0.4"/>
  <line x1="1000" y1="80" x2="1000" y2="135" stroke="#8A6CFF" stroke-width="1.5" stroke-opacity="0.4"/>
  <line x1="1000" y1="80" x2="945"  y2="80"  stroke="#8A6CFF" stroke-width="1.5" stroke-opacity="0.4"/>
  <line x1="1000" y1="80" x2="1039" y2="41"  stroke="#8A6CFF" stroke-width="0.9" stroke-opacity="0.24"/>
  <line x1="1000" y1="80" x2="1039" y2="119" stroke="#8A6CFF" stroke-width="0.9" stroke-opacity="0.24"/>
  <line x1="1000" y1="80" x2="961"  y2="119" stroke="#8A6CFF" stroke-width="0.9" stroke-opacity="0.24"/>
  <line x1="1000" y1="80" x2="961"  y2="41"  stroke="#8A6CFF" stroke-width="0.9" stroke-opacity="0.24"/>
  <circle cx="1000" cy="25"  r="11" fill="url(#ng)" opacity="0.85"/>
  <circle cx="1055" cy="80"  r="11" fill="url(#ng)" opacity="0.85"/>
  <circle cx="1000" cy="135" r="11" fill="url(#ng)" opacity="0.85"/>
  <circle cx="945"  cy="80"  r="11" fill="url(#ng)" opacity="0.85"/>
  <circle cx="1039" cy="41"  r="7"  fill="url(#ng)" opacity="0.62"/>
  <circle cx="1039" cy="119" r="7"  fill="url(#ng)" opacity="0.62"/>
  <circle cx="961"  cy="119" r="7"  fill="url(#ng)" opacity="0.62"/>
  <circle cx="961"  cy="41"  r="7"  fill="url(#ng)" opacity="0.62"/>
  <circle cx="1000" cy="80"  r="26" fill="url(#mg)"/>
  <!-- Quote -->
  <text x="80" y="380" font-family="Inter,-apple-system,system-ui,sans-serif" font-size="58" font-weight="700" fill="white">Automation should</text>
  <text x="80" y="460" font-family="Inter,-apple-system,system-ui,sans-serif" font-size="58" font-weight="700" fill="white">prove its value</text>
  <text x="80" y="540" font-family="Inter,-apple-system,system-ui,sans-serif" font-size="58" font-weight="700" fill="url(#tg)">before you commit</text>
  <text x="80" y="620" font-family="Inter,-apple-system,system-ui,sans-serif" font-size="58" font-weight="700" fill="url(#tg)">to it.</text>
  <rect x="80" y="680" width="100" height="3" fill="url(#mg)" rx="2"/>
  <text x="80" y="740" font-family="Inter,-apple-system,system-ui,sans-serif" font-size="24" font-weight="400" fill="#6B7280">That's why every engagement starts with</text>
  <text x="80" y="780" font-family="Inter,-apple-system,system-ui,sans-serif" font-size="24" font-weight="400" fill="#6B7280">a Pilot — a live system in your business</text>
  <text x="80" y="820" font-family="Inter,-apple-system,system-ui,sans-serif" font-size="24" font-weight="400" fill="#6B7280">within 2 weeks, for £600.</text>
  <text x="80" y="940" font-family="Inter,-apple-system,system-ui,sans-serif" font-size="20" font-weight="600" fill="white">Joseph Enemuwe</text>
  <text x="80" y="970" font-family="Inter,-apple-system,system-ui,sans-serif" font-size="16" font-weight="400" fill="#4B5563">Founder &amp; Solutions Architect · JWEBLY</text>
  <text x="80" y="1040" font-family="Inter,-apple-system,system-ui,sans-serif" font-size="16" font-weight="600" fill="#8A6CFF">jwebly.co.uk</text>
</svg>
