<svg width="1080" height="1080" viewBox="0 0 1080 1080" fill="none" xmlns="http://www.w3.org/2000/svg">
  <rect width="1080" height="1080" fill="#0A0E1A"/>
  <rect x="0" y="0" width="1080" height="6" fill="#8A6CFF"/>
  <rect x="0" y="1074" width="1080" height="6" fill="#4B7BFF"/>
  <circle cx="880" cy="200" r="400" fill="#8A6CFF" fill-opacity="0.06"/>
  <defs>
    <linearGradient id="tg" x1="0" y1="0" x2="1" y2="0"><stop offset="0%" stop-color="#8A6CFF"/><stop offset="100%" stop-color="#4B7BFF"/></linearGradient>
    <linearGradient id="mg" x1="0" y1="0" x2="1" y2="1"><stop offset="0%" stop-color="#8A6CFF"/><stop offset="100%" stop-color="#4B7BFF"/></linearGradient>
    <linearGradient id="ng" x1="0" y1="0" x2="1" y2="1"><stop offset="0%" stop-color="#A98DFF"/><stop offset="100%" stop-color="#6B9FFF"/></linearGradient>
    <radialGradient id="gl" cx="50%" cy="50%" r="50%"><stop offset="0%" stop-color="#8A6CFF" stop-opacity="0.2"/><stop offset="100%" stop-color="#8A6CFF" stop-opacity="0"/></radialGradient>
  </defs>
  <!-- Corner mark top-right -->
  <circle cx="1000" cy="80" r="60" fill="url(#gl)"/>
  <circle cx="1000" cy="80" r="33" fill="none" stroke="#8A6CFF" stroke-width="0.9" stroke-opacity="0.16"/>
  <line x1="1000" y1="80" x2="1000" y2="25"  stroke="#8A6CFF" stroke-width="1.5" stroke-opacity="0.4"/>
  <line x1="1000" y1="80" x2="1055" y2="80"  stroke="#8A6CFF" stroke-width="1.5" stroke-opacity="0.4"/>
  <line x1="1000" y1="80" x2="1000" y2="135" stroke="#8A6CFF" stroke-width="1.5" stroke-opacity="0.4"/>
  <line x1="1000" y1="80" x2="945"  y2="80"  stroke="#8A6CFF" stroke-width="1.5" stroke-opacity="0.4"/>
  <line x1="1000" y1="80" x2="1039" y2="41"  stroke="#8A6CFF" stroke-width="0.9" stroke-opacity="0.24"/>
  <line x1="1000" y1="80" x2="1039" y2="119" stroke="#8A6CFF" stroke-width="0.9" stroke-opacity="0.24"/>
  <line x1="1000" y1="80" x2="961"  y2="119" stroke="#8A6CFF" stroke-width="0.9" stroke-opacity="0.24"/>
  <line x1="1000" y1="80" x2="961"  y2="41"  stroke="#8A6CFF" stroke-width="0.9" stroke-opacity="0.24"/>
  <circle cx="1000" cy="25"  r="11" fill="url(#ng)" opacity="0.85"/>
  <circle cx="1055" cy="80"  r="11" fill="url(#ng)" opacity="0.85"/>
  <circle cx="1000" cy="135" r="11" fill="url(#ng)" opacity="0.85"/>
  <circle cx="945"  cy="80"  r="11" fill="url(#ng)" opacity="0.85"/>
  <circle cx="1039" cy="41"  r="7"  fill="url(#ng)" opacity="0.62"/>
  <circle cx="1039" cy="119" r="7"  fill="url(#ng)" opacity="0.62"/>
  <circle cx="961"  cy="119" r="7"  fill="url(#ng)" opacity="0.62"/>
  <circle cx="961"  cy="41"  r="7"  fill="url(#ng)" opacity="0.62"/>
  <circle cx="1000" cy="80"  r="26" fill="url(#mg)"/>
  <!-- Lock icon -->
  <rect x="430" y="180" width="220" height="180" rx="16" fill="url(#mg)" fill-opacity="0.15" stroke="#8A6CFF" stroke-opacity="0.3" stroke-width="2"/>
  <rect x="460" y="260" width="160" height="140" rx="12" fill="url(#mg)"/>
  <path d="M480 260 Q480 200 540 200 Q600 200 600 260" stroke="#8A6CFF" stroke-opacity="0.5" stroke-width="12" fill="none" stroke-linecap="round"/>
  <circle cx="540" cy="310" r="18" fill="white" fill-opacity="0.25"/>
  <!-- Main text -->
  <text x="540" y="500" font-family="Inter,-apple-system,system-ui,sans-serif" font-size="88" font-weight="700" fill="white" text-anchor="middle">Your data</text>
  <text x="540" y="610" font-family="Inter,-apple-system,system-ui,sans-serif" font-size="88" font-weight="700" fill="url(#tg)" text-anchor="middle">stays yours.</text>
  <rect x="440" y="650" width="200" height="4" fill="url(#mg)" rx="2"/>
  <text x="540" y="730" font-family="Inter,-apple-system,system-ui,sans-serif" font-size="26" font-weight="400" fill="#6B7280" text-anchor="middle">Your operational data is never used to train</text>
  <text x="540" y="770" font-family="Inter,-apple-system,system-ui,sans-serif" font-size="26" font-weight="400" fill="#6B7280" text-anchor="middle">external AI models. Your workflows are isolated.</text>
  <text x="540" y="810" font-family="Inter,-apple-system,system-ui,sans-serif" font-size="26" font-weight="400" fill="#6B7280" text-anchor="middle">What happens in your system stays there.</text>
  <line x1="80" y1="950" x2="1000" y2="950" stroke="#1B2B45" stroke-width="1"/>
  <text x="540" y="1010" font-family="Inter,-apple-system,system-ui,sans-serif" font-size="20" font-weight="600" fill="#8A6CFF" text-anchor="middle">JWEBLY · Operational Intelligence · jwebly.co.uk</text>
</svg>
