<svg width="1080" height="1080" viewBox="0 0 1080 1080" fill="none" xmlns="http://www.w3.org/2000/svg">
  <rect width="1080" height="1080" fill="#0A0E1A"/>
  <defs>
    <linearGradient id="mg" x1="0" y1="0" x2="1" y2="1"><stop offset="0%" stop-color="#8A6CFF"/><stop offset="100%" stop-color="#4B7BFF"/></linearGradient>
    <linearGradient id="ng" x1="0" y1="0" x2="1" y2="1"><stop offset="0%" stop-color="#A98DFF"/><stop offset="100%" stop-color="#6B9FFF"/></linearGradient>
    <linearGradient id="tg" x1="0" y1="0" x2="1" y2="0"><stop offset="0%" stop-color="#8A6CFF"/><stop offset="100%" stop-color="#4B7BFF"/></linearGradient>
    <radialGradient id="gl" cx="50%" cy="50%" r="50%"><stop offset="0%" stop-color="#8A6CFF" stop-opacity="0.2"/><stop offset="100%" stop-color="#8A6CFF" stop-opacity="0"/></radialGradient>
  </defs>
  <!-- Top label with mark -->
  <text x="540" y="80" font-family="Inter,-apple-system,system-ui,sans-serif" font-size="18" font-weight="400" fill="#374151" letter-spacing="3" text-anchor="middle">JWEBLY · THE PILOT RESULTS</text>
  <line x1="80" y1="98" x2="1000" y2="98" stroke="#1B2B45" stroke-width="1"/>
  <!-- Small mark in header -->
  <circle cx="60" cy="60" r="36" fill="url(#gl)"/>
  <line x1="60" y1="60" x2="60" y2="28"  stroke="#8A6CFF" stroke-width="1.1" stroke-opacity="0.45"/>
  <line x1="60" y1="60" x2="92" y2="60"  stroke="#8A6CFF" stroke-width="1.1" stroke-opacity="0.45"/>
  <line x1="60" y1="60" x2="60" y2="92"  stroke="#8A6CFF" stroke-width="1.1" stroke-opacity="0.45"/>
  <line x1="60" y1="60" x2="28" y2="60"  stroke="#8A6CFF" stroke-width="1.1" stroke-opacity="0.45"/>
  <line x1="60" y1="60" x2="83" y2="37"  stroke="#8A6CFF" stroke-width="0.7" stroke-opacity="0.26"/>
  <line x1="60" y1="60" x2="83" y2="83"  stroke="#8A6CFF" stroke-width="0.7" stroke-opacity="0.26"/>
  <line x1="60" y1="60" x2="37" y2="83"  stroke="#8A6CFF" stroke-width="0.7" stroke-opacity="0.26"/>
  <line x1="60" y1="60" x2="37" y2="37"  stroke="#8A6CFF" stroke-width="0.7" stroke-opacity="0.26"/>
  <circle cx="60" cy="28" r="6.5" fill="url(#ng)" opacity="0.9"/>
  <circle cx="92" cy="60" r="6.5" fill="url(#ng)" opacity="0.9"/>
  <circle cx="60" cy="92" r="6.5" fill="url(#ng)" opacity="0.9"/>
  <circle cx="28" cy="60" r="6.5" fill="url(#ng)" opacity="0.9"/>
  <circle cx="83" cy="37" r="4"   fill="url(#ng)" opacity="0.62"/>
  <circle cx="83" cy="83" r="4"   fill="url(#ng)" opacity="0.62"/>
  <circle cx="37" cy="83" r="4"   fill="url(#ng)" opacity="0.62"/>
  <circle cx="37" cy="37" r="4"   fill="url(#ng)" opacity="0.62"/>
  <circle cx="60" cy="60" r="16"  fill="url(#mg)"/>
  <!-- Title -->
  <text x="80" y="200" font-family="Inter,-apple-system,system-ui,sans-serif" font-size="56" font-weight="700" fill="white">What happens when</text>
  <text x="80" y="280" font-family="Inter,-apple-system,system-ui,sans-serif" font-size="56" font-weight="700" fill="url(#tg)">automation works.</text>
  <!-- Stats grid -->
  <rect x="80"  y="350" width="440" height="240" rx="16" fill="#050810" stroke="#1B2B45" stroke-width="1"/>
  <text x="300" y="470" font-family="Inter,-apple-system,system-ui,sans-serif" font-size="90" font-weight="700" fill="url(#mg)" text-anchor="middle">8–15</text>
  <text x="300" y="525" font-family="Inter,-apple-system,system-ui,sans-serif" font-size="20" font-weight="400" fill="#6B7280" text-anchor="middle">hours saved per week</text>
  <rect x="560" y="350" width="440" height="240" rx="16" fill="#050810" stroke="#1B2B45" stroke-width="1"/>
  <text x="780" y="470" font-family="Inter,-apple-system,system-ui,sans-serif" font-size="90" font-weight="700" fill="url(#mg)" text-anchor="middle">85%+</text>
  <text x="780" y="525" font-family="Inter,-apple-system,system-ui,sans-serif" font-size="20" font-weight="400" fill="#6B7280" text-anchor="middle">error reduction in automated tasks</text>
  <rect x="80"  y="620" width="440" height="240" rx="16" fill="#050810" stroke="#1B2B45" stroke-width="1"/>
  <text x="300" y="740" font-family="Inter,-apple-system,system-ui,sans-serif" font-size="90" font-weight="700" fill="url(#mg)" text-anchor="middle">2 wks</text>
  <text x="300" y="795" font-family="Inter,-apple-system,system-ui,sans-serif" font-size="20" font-weight="400" fill="#6B7280" text-anchor="middle">from discovery to live system</text>
  <rect x="560" y="620" width="440" height="240" rx="16" fill="#050810" stroke="#1B2B45" stroke-width="1"/>
  <text x="780" y="740" font-family="Inter,-apple-system,system-ui,sans-serif" font-size="90" font-weight="700" fill="url(#mg)" text-anchor="middle">£600</text>
  <text x="780" y="795" font-family="Inter,-apple-system,system-ui,sans-serif" font-size="20" font-weight="400" fill="#6B7280" text-anchor="middle">fixed price, no surprises</text>
  <line x1="80" y1="930" x2="1000" y2="930" stroke="#1B2B45" stroke-width="1"/>
  <text x="540" y="990" font-family="Inter,-apple-system,system-ui,sans-serif" font-size="22" font-weight="400" fill="#4B5563" text-anchor="middle">Start with the Pilot. Scale when proven.</text>
  <text x="540" y="1038" font-family="Inter,-apple-system,system-ui,sans-serif" font-size="18" font-weight="600" fill="#8A6CFF" text-anchor="middle">jwebly.co.uk · hello@jwebly.co.uk</text>
</svg>
