<svg width="1080" height="1920" viewBox="0 0 1080 1920" fill="none" xmlns="http://www.w3.org/2000/svg">
  <rect width="1080" height="1920" fill="#050810"/>
  <circle cx="540" cy="960" r="900" fill="#8A6CFF" fill-opacity="0.04"/>
  <circle cx="100" cy="300" r="400" fill="#8A6CFF" fill-opacity="0.07"/>
  <circle cx="980" cy="1600" r="350" fill="#4B7BFF" fill-opacity="0.07"/>
  <defs>
    <linearGradient id="mg" x1="0" y1="0" x2="1" y2="1"><stop offset="0%" stop-color="#8A6CFF"/><stop offset="100%" stop-color="#4B7BFF"/></linearGradient>
    <linearGradient id="ng" x1="0" y1="0" x2="1" y2="1"><stop offset="0%" stop-color="#A98DFF"/><stop offset="100%" stop-color="#6B9FFF"/></linearGradient>
    <linearGradient id="tg" x1="0" y1="0" x2="1" y2="0"><stop offset="0%" stop-color="#8A6CFF"/><stop offset="100%" stop-color="#4B7BFF"/></linearGradient>
    <radialGradient id="gl" cx="50%" cy="50%" r="50%"><stop offset="0%" stop-color="#8A6CFF" stop-opacity="0.3"/><stop offset="100%" stop-color="#8A6CFF" stop-opacity="0"/></radialGradient>
  </defs>
  <!-- Central hub mark — hub (540,300) d_primary=200 -->
  <circle cx="540" cy="300" r="200" fill="url(#gl)"/>
  <circle cx="540" cy="300" r="120" fill="none" stroke="#8A6CFF" stroke-width="1.2" stroke-opacity="0.16"/>
  <!-- Primary spokes -->
  <line x1="540" y1="300" x2="540" y2="100" stroke="#8A6CFF" stroke-width="2.5" stroke-opacity="0.45"/>
  <line x1="540" y1="300" x2="740" y2="300" stroke="#8A6CFF" stroke-width="2.5" stroke-opacity="0.45"/>
  <line x1="540" y1="300" x2="540" y2="500" stroke="#8A6CFF" stroke-width="2.5" stroke-opacity="0.45"/>
  <line x1="540" y1="300" x2="340" y2="300" stroke="#8A6CFF" stroke-width="2.5" stroke-opacity="0.45"/>
  <!-- Secondary spokes (d=141, offset=100) -->
  <line x1="540" y1="300" x2="640" y2="200" stroke="#4B7BFF" stroke-width="1.4" stroke-opacity="0.28"/>
  <line x1="540" y1="300" x2="640" y2="400" stroke="#4B7BFF" stroke-width="1.4" stroke-opacity="0.28"/>
  <line x1="540" y1="300" x2="440" y2="400" stroke="#4B7BFF" stroke-width="1.4" stroke-opacity="0.28"/>
  <line x1="540" y1="300" x2="440" y2="200" stroke="#4B7BFF" stroke-width="1.4" stroke-opacity="0.28"/>
  <!-- Primary nodes -->
  <circle cx="540" cy="100" r="24" fill="url(#ng)" opacity="0.9"/>
  <circle cx="740" cy="300" r="24" fill="url(#ng)" opacity="0.9"/>
  <circle cx="540" cy="500" r="24" fill="url(#ng)" opacity="0.9"/>
  <circle cx="340" cy="300" r="24" fill="url(#ng)" opacity="0.9"/>
  <!-- Secondary nodes -->
  <circle cx="640" cy="200" r="15" fill="#4B7BFF" opacity="0.7"/>
  <circle cx="640" cy="400" r="15" fill="#4B7BFF" opacity="0.7"/>
  <circle cx="440" cy="400" r="15" fill="#4B7BFF" opacity="0.7"/>
  <circle cx="440" cy="200" r="15" fill="#4B7BFF" opacity="0.7"/>
  <!-- Hub -->
  <circle cx="540" cy="300" r="60" fill="url(#mg)"/>
  <circle cx="520" cy="280" r="22" fill="white" fill-opacity="0.12"/>
  <!-- Brand name -->
  <text x="540" y="640" font-family="Inter,-apple-system,system-ui,sans-serif" font-size="52" font-weight="700" fill="white" text-anchor="middle" letter-spacing="6">JWEBLY</text>
  <text x="540" y="700" font-family="Inter,-apple-system,system-ui,sans-serif" font-size="16" font-weight="400" fill="#374151" text-anchor="middle" letter-spacing="3">OPERATIONAL INTELLIGENCE</text>
  <!-- Middle content -->
  <line x1="140" y1="780" x2="940" y2="780" stroke="#1B2B45" stroke-width="1"/>
  <text x="540" y="920" font-family="Inter,-apple-system,system-ui,sans-serif" font-size="80" font-weight="700" fill="white" text-anchor="middle">Business</text>
  <text x="540" y="1030" font-family="Inter,-apple-system,system-ui,sans-serif" font-size="80" font-weight="700" fill="url(#tg)" text-anchor="middle">meets AI.</text>
  <line x1="140" y1="1100" x2="940" y2="1100" stroke="#1B2B45" stroke-width="1"/>
  <!-- Body text -->
  <text x="540" y="1230" font-family="Inter,-apple-system,system-ui,sans-serif" font-size="34" font-weight="400" fill="#94A3B8" text-anchor="middle">We build custom AI automation</text>
  <text x="540" y="1285" font-family="Inter,-apple-system,system-ui,sans-serif" font-size="34" font-weight="400" fill="#94A3B8" text-anchor="middle">systems that help growing businesses</text>
  <text x="540" y="1340" font-family="Inter,-apple-system,system-ui,sans-serif" font-size="34" font-weight="400" fill="#94A3B8" text-anchor="middle">operate at a new level of intelligence.</text>
  <!-- CTA pill -->
  <rect x="240" y="1440" width="600" height="90" rx="45" fill="url(#mg)"/>
  <text x="540" y="1496" font-family="Inter,-apple-system,system-ui,sans-serif" font-size="28" font-weight="600" fill="white" text-anchor="middle">Start with £600 · jwebly.co.uk</text>
  <!-- Footer -->
  <text x="540" y="1720" font-family="Inter,-apple-system,system-ui,sans-serif" font-size="22" font-weight="400" fill="#374151" text-anchor="middle">hello@jwebly.co.uk</text>
  <text x="540" y="1800" font-family="Inter,-apple-system,system-ui,sans-serif" font-size="18" font-weight="600" fill="#6B7280" text-anchor="middle">↑ Book a discovery call</text>
</svg>
