<svg width="600" height="160" viewBox="0 0 600 160" fill="none" xmlns="http://www.w3.org/2000/svg">
  <rect width="600" height="160" fill="#050810"/>
  <rect x="0" y="0" width="4" height="160" fill="#8A6CFF"/>
  <defs>
    <linearGradient id="mg" x1="0" y1="0" x2="1" y2="1"><stop offset="0%" stop-color="#8A6CFF"/><stop offset="100%" stop-color="#4B7BFF"/></linearGradient>
    <linearGradient id="ng" x1="0" y1="0" x2="1" y2="1"><stop offset="0%" stop-color="#A98DFF"/><stop offset="100%" stop-color="#6B9FFF"/></linearGradient>
    <radialGradient id="gl" cx="50%" cy="50%" r="50%"><stop offset="0%" stop-color="#8A6CFF" stop-opacity="0.25"/><stop offset="100%" stop-color="#8A6CFF" stop-opacity="0"/></radialGradient>
  </defs>
  <!-- Mini mark — hub (50,80) d_primary=36 -->
  <circle cx="50" cy="80" r="36" fill="url(#gl)"/>
  <circle cx="50" cy="80" r="22" fill="none" stroke="#8A6CFF" stroke-width="0.7" stroke-opacity="0.18"/>
  <!-- Primary spokes -->
  <line x1="50" y1="80" x2="50" y2="44" stroke="#8A6CFF" stroke-width="1.2" stroke-opacity="0.45"/>
  <line x1="50" y1="80" x2="86" y2="80" stroke="#8A6CFF" stroke-width="1.2" stroke-opacity="0.45"/>
  <line x1="50" y1="80" x2="50" y2="116" stroke="#8A6CFF" stroke-width="1.2" stroke-opacity="0.45"/>
  <line x1="50" y1="80" x2="14" y2="80" stroke="#8A6CFF" stroke-width="1.2" stroke-opacity="0.45"/>
  <!-- Secondary spokes (d=25, offset=18) -->
  <line x1="50" y1="80" x2="68" y2="62" stroke="#4B7BFF" stroke-width="0.7" stroke-opacity="0.28"/>
  <line x1="50" y1="80" x2="68" y2="98" stroke="#4B7BFF" stroke-width="0.7" stroke-opacity="0.28"/>
  <line x1="50" y1="80" x2="32" y2="98" stroke="#4B7BFF" stroke-width="0.7" stroke-opacity="0.28"/>
  <line x1="50" y1="80" x2="32" y2="62" stroke="#4B7BFF" stroke-width="0.7" stroke-opacity="0.28"/>
  <!-- Primary nodes -->
  <circle cx="50" cy="44"  r="7" fill="url(#ng)" opacity="0.9"/>
  <circle cx="86" cy="80"  r="7" fill="url(#ng)" opacity="0.9"/>
  <circle cx="50" cy="116" r="7" fill="url(#ng)" opacity="0.9"/>
  <circle cx="14" cy="80"  r="7" fill="url(#ng)" opacity="0.9"/>
  <!-- Secondary nodes -->
  <circle cx="68" cy="62" r="4.5" fill="#4B7BFF" opacity="0.7"/>
  <circle cx="68" cy="98" r="4.5" fill="#4B7BFF" opacity="0.7"/>
  <circle cx="32" cy="98" r="4.5" fill="#4B7BFF" opacity="0.7"/>
  <circle cx="32" cy="62" r="4.5" fill="#4B7BFF" opacity="0.7"/>
  <!-- Hub -->
  <circle cx="50" cy="80" r="16" fill="url(#mg)"/>
  <circle cx="47" cy="77" r="6" fill="white" fill-opacity="0.12"/>
  <!-- Text content -->
  <text x="120" y="48" font-family="Inter,-apple-system,system-ui,sans-serif" font-size="18" font-weight="700" fill="white">Joseph Enemuwe</text>
  <text x="120" y="72" font-family="Inter,-apple-system,system-ui,sans-serif" font-size="12" font-weight="400" fill="#6B7280">Founder &amp; Solutions Architect · JWEBLY</text>
  <line x1="120" y1="86" x2="560" y2="86" stroke="#1B2B45" stroke-width="1"/>
  <text x="120" y="108" font-family="Inter,-apple-system,system-ui,sans-serif" font-size="12" font-weight="400" fill="#4B5563">hello@jwebly.co.uk</text>
  <text x="280" y="108" font-family="Inter,-apple-system,system-ui,sans-serif" font-size="12" font-weight="400" fill="#4B5563">jwebly.co.uk</text>
  <text x="120" y="128" font-family="Inter,-apple-system,system-ui,sans-serif" font-size="10" font-weight="400" fill="#374151" letter-spacing="1">OPERATIONAL INTELLIGENCE · Built for Your Business</text>
</svg>
