<svg width="600" height="200" viewBox="0 0 600 200" fill="none" xmlns="http://www.w3.org/2000/svg">
  <rect width="600" height="200" fill="#050810"/>
  <rect x="0" y="0" width="600" height="4" fill="#8A6CFF"/>
  <circle cx="500" cy="100" r="200" fill="#8A6CFF" fill-opacity="0.06"/>
  <defs>
    <linearGradient id="mg" x1="0" y1="0" x2="1" y2="1"><stop offset="0%" stop-color="#8A6CFF"/><stop offset="100%" stop-color="#4B7BFF"/></linearGradient>
    <linearGradient id="ng" x1="0" y1="0" x2="1" y2="1"><stop offset="0%" stop-color="#A98DFF"/><stop offset="100%" stop-color="#6B9FFF"/></linearGradient>
    <radialGradient id="gl" cx="50%" cy="50%" r="50%"><stop offset="0%" stop-color="#8A6CFF" stop-opacity="0.25"/><stop offset="100%" stop-color="#8A6CFF" stop-opacity="0"/></radialGradient>
    <linearGradient id="tg" x1="0" y1="0" x2="1" y2="0"><stop offset="0%" stop-color="#8A6CFF"/><stop offset="100%" stop-color="#4B7BFF"/></linearGradient>
  </defs>
  <!-- Mark — hub (60,100) d_primary=55 -->
  <circle cx="60" cy="100" r="55" fill="url(#gl)"/>
  <circle cx="60" cy="100" r="33" fill="none" stroke="#8A6CFF" stroke-width="0.7" stroke-opacity="0.18"/>
  <!-- Primary spokes -->
  <line x1="60" y1="100" x2="60" y2="45"  stroke="#8A6CFF" stroke-width="1.2" stroke-opacity="0.4"/>
  <line x1="60" y1="100" x2="115" y2="100" stroke="#8A6CFF" stroke-width="1.2" stroke-opacity="0.4"/>
  <line x1="60" y1="100" x2="60" y2="155" stroke="#8A6CFF" stroke-width="1.2" stroke-opacity="0.4"/>
  <line x1="60" y1="100" x2="5"  y2="100" stroke="#8A6CFF" stroke-width="1.2" stroke-opacity="0.4"/>
  <!-- Secondary spokes (d=39, offset=28) -->
  <line x1="60" y1="100" x2="88" y2="72"  stroke="#4B7BFF" stroke-width="0.7" stroke-opacity="0.28"/>
  <line x1="60" y1="100" x2="88" y2="128" stroke="#4B7BFF" stroke-width="0.7" stroke-opacity="0.28"/>
  <line x1="60" y1="100" x2="32" y2="128" stroke="#4B7BFF" stroke-width="0.7" stroke-opacity="0.28"/>
  <line x1="60" y1="100" x2="32" y2="72"  stroke="#4B7BFF" stroke-width="0.7" stroke-opacity="0.28"/>
  <!-- Primary nodes -->
  <circle cx="60" cy="45"  r="10" fill="url(#ng)" opacity="0.9"/>
  <circle cx="115" cy="100" r="10" fill="url(#ng)" opacity="0.9"/>
  <circle cx="60" cy="155" r="10" fill="url(#ng)" opacity="0.9"/>
  <circle cx="5"  cy="100" r="10" fill="url(#ng)" opacity="0.9"/>
  <!-- Secondary nodes -->
  <circle cx="88" cy="72"  r="6.5" fill="#4B7BFF" opacity="0.7"/>
  <circle cx="88" cy="128" r="6.5" fill="#4B7BFF" opacity="0.7"/>
  <circle cx="32" cy="128" r="6.5" fill="#4B7BFF" opacity="0.7"/>
  <circle cx="32" cy="72"  r="6.5" fill="#4B7BFF" opacity="0.7"/>
  <!-- Hub -->
  <circle cx="60" cy="100" r="24" fill="url(#mg)"/>
  <circle cx="52" cy="92" r="9" fill="white" fill-opacity="0.13"/>
  <!-- Text -->
  <text x="154" y="84" font-family="Inter,-apple-system,system-ui,sans-serif" font-size="32" font-weight="700" fill="white" letter-spacing="3">JWEBLY</text>
  <text x="155" y="110" font-family="Inter,-apple-system,system-ui,sans-serif" font-size="11" font-weight="400" fill="#4B5563" letter-spacing="2">OPERATIONAL INTELLIGENCE</text>
  <line x1="154" y1="126" x2="400" y2="126" stroke="#1B2B45" stroke-width="1"/>
  <text x="154" y="150" font-family="Inter,-apple-system,system-ui,sans-serif" font-size="14" font-weight="300" fill="#6B7280">Business meets AI. Built for growing businesses.</text>
  <text x="154" y="175" font-family="Inter,-apple-system,system-ui,sans-serif" font-size="12" font-weight="400" fill="#374151">jwebly.co.uk · hello@jwebly.co.uk</text>
</svg>
